<?xml version="1.0" encoding="UTF-8"?>
<svg xmlns="http://www.w3.org/2000/svg" xmlns:xlink="http://www.w3.org/1999/xlink" width="24px" height="24px" viewBox="0 0 24 24" version="1.1">
<g id="surface1">
<path style=" stroke:none;fill-rule:nonzero;fill:rgb(20.392157%,65.882353%,32.54902%);fill-opacity:1;" d="M 20.007812 18 C 20.007812 19.105469 19.113281 20 18.007812 20 C 16.902344 20 16.007812 19.105469 16.007812 18 C 16.007812 16.894531 16.902344 16 18.007812 16 C 19.113281 16 20.007812 16.894531 20.007812 18 Z M 20.007812 18 "/>
<path style=" stroke:none;fill-rule:nonzero;fill:rgb(25.882353%,52.156863%,95.686275%);fill-opacity:1;" d="M 15.007812 13 C 15.007812 14.65625 13.664062 16 12.007812 16 C 10.351562 16 9.007812 14.65625 9.007812 13 C 9.007812 11.34375 10.351562 10 12.007812 10 C 13.664062 10 15.007812 11.34375 15.007812 13 Z M 15.007812 13 "/>
<path style=" stroke:none;fill-rule:nonzero;fill:rgb(91.764706%,26.27451%,20.784314%);fill-opacity:1;" d="M 3 16.898438 C 3 19.164062 4.835938 21 7.101562 21 L 12 21 L 12 19 L 6.988281 18.988281 C 5.886719 18.988281 5 17.964844 5 16.75 L 5 14.5 L 3 14.5 Z M 3 16.898438 "/>
<path style=" stroke:none;fill-rule:nonzero;fill:rgb(98.431373%,73.72549%,1.568627%);fill-opacity:1;" d="M 21 9.101562 C 21 6.835938 19.164062 5 16.898438 5 L 14.5 5 L 17 7 C 18.101562 7 19 8.035156 19 9.25 L 19 13 L 21 13 Z M 21 9.101562 "/>
<path style=" stroke:none;fill-rule:nonzero;fill:rgb(25.882353%,52.156863%,95.686275%);fill-opacity:1;" d="M 14 3 L 10 3 L 8.5 5 L 7.101562 5 C 4.835938 5 3 6.835938 3 9.101562 L 3 11.5 L 5 11.5 L 5 9.25 C 5 8.035156 5.898438 7 7 7 L 17 7 Z M 14 3 "/>
</g>
</svg>
